<svg xmlns="http://www.w3.org/2000/svg" xmlns:xlink="http://www.w3.org/1999/xlink" width="500" zoomAndPan="magnify" viewBox="0 0 375 374.999991" height="500" preserveAspectRatio="xMidYMid meet" version="1.0"><defs><filter x="0%" y="0%" width="100%" height="100%" id="936a05693d"><feColorMatrix values="0 0 0 0 1 0 0 0 0 1 0 0 0 0 1 0 0 0 1 0" color-interpolation-filters="sRGB"/></filter><g/><mask id="fe306d400f"><g filter="url(#936a05693d)"><rect x="-37.5" width="450" fill="#000000" y="-37.499999" height="449.999989" fill-opacity="0.48"/></g></mask><clipPath id="6a774d722c"><rect x="0" width="120" y="0" height="89"/></clipPath></defs><g fill="#000000" fill-opacity="1"><g transform="translate(159.558838, 188.517874)"><g><path d="M 1.46875 0 L 1.46875 -0.375 C 1.914062 -0.507812 2.21875 -0.796875 2.375 -1.234375 C 2.539062 -1.679688 2.625 -2.492188 2.625 -3.671875 L 2.625 -16.53125 C 2.625 -17.726562 2.539062 -18.539062 2.375 -18.96875 C 2.21875 -19.40625 1.914062 -19.691406 1.46875 -19.828125 L 1.46875 -20.203125 L 6.140625 -20.203125 L 6.140625 -19.828125 C 5.703125 -19.691406 5.398438 -19.40625 5.234375 -18.96875 C 5.078125 -18.539062 5 -17.726562 5 -16.53125 L 5 -1.765625 C 5 -0.898438 5.429688 -0.46875 6.296875 -0.46875 L 9.71875 -0.46875 C 11.101562 -0.46875 12.164062 -0.671875 12.90625 -1.078125 C 13.65625 -1.492188 14.28125 -2.238281 14.78125 -3.3125 L 15.09375 -3.265625 L 14.890625 0 Z M 1.46875 0 "/></g></g></g><g fill="#000000" fill-opacity="1"><g transform="translate(175.225281, 188.517874)"><g><path d="M 8.59375 0.28125 C 7.675781 0.28125 6.769531 0.140625 5.875 -0.140625 C 4.976562 -0.429688 4.164062 -0.875 3.4375 -1.46875 C 2.707031 -2.0625 2.125 -2.820312 1.6875 -3.75 C 1.25 -4.675781 1.03125 -5.765625 1.03125 -7.015625 C 1.03125 -8.515625 1.382812 -9.835938 2.09375 -10.984375 C 2.8125 -12.128906 3.75 -13.019531 4.90625 -13.65625 C 6.0625 -14.300781 7.289062 -14.625 8.59375 -14.625 C 9.5 -14.625 10.394531 -14.484375 11.28125 -14.203125 C 12.164062 -13.929688 12.972656 -13.492188 13.703125 -12.890625 C 14.441406 -12.296875 15.03125 -11.535156 15.46875 -10.609375 C 15.90625 -9.691406 16.125 -8.585938 16.125 -7.296875 C 16.125 -6.066406 15.898438 -4.976562 15.453125 -4.03125 C 15.003906 -3.09375 14.40625 -2.300781 13.65625 -1.65625 C 12.90625 -1.007812 12.085938 -0.523438 11.203125 -0.203125 C 10.316406 0.117188 9.445312 0.28125 8.59375 0.28125 Z M 3.265625 -8.65625 C 3.265625 -7.726562 3.40625 -6.78125 3.6875 -5.8125 C 3.976562 -4.84375 4.394531 -3.941406 4.9375 -3.109375 C 5.476562 -2.285156 6.125 -1.613281 6.875 -1.09375 C 7.632812 -0.570312 8.5 -0.3125 9.46875 -0.3125 C 10.507812 -0.3125 11.351562 -0.554688 12 -1.046875 C 12.65625 -1.546875 13.140625 -2.195312 13.453125 -3 C 13.773438 -3.8125 13.9375 -4.675781 13.9375 -5.59375 C 13.9375 -6.519531 13.78125 -7.488281 13.46875 -8.5 C 13.164062 -9.507812 12.726562 -10.445312 12.15625 -11.3125 C 11.59375 -12.175781 10.914062 -12.867188 10.125 -13.390625 C 9.34375 -13.910156 8.476562 -14.140625 7.53125 -14.078125 C 6.550781 -14.046875 5.742188 -13.78125 5.109375 -13.28125 C 4.472656 -12.78125 4.003906 -12.125 3.703125 -11.3125 C 3.410156 -10.5 3.265625 -9.613281 3.265625 -8.65625 Z M 3.265625 -8.65625 "/></g></g></g><g fill="#000000" fill-opacity="1"><g transform="translate(192.593963, 188.517874)"><g><path d="M -2.421875 8.015625 C -2.804688 8.015625 -3.140625 7.957031 -3.421875 7.84375 C -3.703125 7.726562 -3.84375 7.554688 -3.84375 7.328125 C -3.84375 7.160156 -3.769531 6.953125 -3.625 6.703125 C -3.476562 6.460938 -3.28125 6.25 -3.03125 6.0625 C -2.78125 5.882812 -2.5 5.796875 -2.1875 5.796875 C -1.800781 5.796875 -1.320312 5.84375 -0.75 5.9375 C -0.1875 6.039062 0.390625 6.140625 0.984375 6.234375 C 1.671875 5.710938 2.109375 5.078125 2.296875 4.328125 C 2.492188 3.578125 2.59375 2.554688 2.59375 1.265625 L 2.59375 -10.296875 C 2.59375 -10.972656 2.550781 -11.476562 2.46875 -11.8125 C 2.382812 -12.15625 2.257812 -12.398438 2.09375 -12.546875 C 1.925781 -12.703125 1.707031 -12.835938 1.4375 -12.953125 L 1.4375 -13.28125 L 4.59375 -14.65625 L 4.84375 -14.453125 L 4.84375 -0.6875 C 4.84375 0.476562 4.613281 1.585938 4.15625 2.640625 C 3.707031 3.691406 3.113281 4.617188 2.375 5.421875 C 1.632812 6.234375 0.847656 6.867188 0.015625 7.328125 C -0.816406 7.785156 -1.628906 8.015625 -2.421875 8.015625 Z M 1.84375 -18.015625 C 1.84375 -18.472656 1.992188 -18.851562 2.296875 -19.15625 C 2.609375 -19.46875 2.988281 -19.625 3.4375 -19.625 C 3.894531 -19.625 4.269531 -19.46875 4.5625 -19.15625 C 4.863281 -18.851562 5.015625 -18.472656 5.015625 -18.015625 C 5.015625 -17.585938 4.859375 -17.210938 4.546875 -16.890625 C 4.242188 -16.578125 3.875 -16.421875 3.4375 -16.421875 C 2.988281 -16.421875 2.609375 -16.578125 2.296875 -16.890625 C 1.992188 -17.210938 1.84375 -17.585938 1.84375 -18.015625 Z M 1.84375 -18.015625 "/></g></g></g><g fill="#000000" fill-opacity="1"><g transform="translate(199.4318, 188.517874)"><g><path d="M 12.09375 0 C 11.507812 0 11.21875 -0.285156 11.21875 -0.859375 L 11.21875 -6.0625 C 10.9375 -4.882812 10.488281 -3.816406 9.875 -2.859375 C 9.257812 -1.898438 8.539062 -1.132812 7.71875 -0.5625 C 6.90625 0 6.015625 0.28125 5.046875 0.28125 C 4.335938 0.28125 3.675781 0.140625 3.0625 -0.140625 C 2.445312 -0.429688 1.953125 -0.851562 1.578125 -1.40625 C 1.203125 -1.96875 1.015625 -2.660156 1.015625 -3.484375 C 1.015625 -4.492188 1.3125 -5.3125 1.90625 -5.9375 C 2.5 -6.570312 3.289062 -7.09375 4.28125 -7.5 C 5.269531 -7.90625 6.332031 -8.265625 7.46875 -8.578125 L 11.21875 -9.578125 C 11.144531 -10.984375 10.757812 -12.015625 10.0625 -12.671875 C 9.375 -13.335938 8.414062 -13.671875 7.1875 -13.671875 C 6.320312 -13.671875 5.476562 -13.460938 4.65625 -13.046875 C 3.84375 -12.640625 3.070312 -11.992188 2.34375 -11.109375 L 2.078125 -11.34375 C 2.898438 -12.363281 3.835938 -13.164062 4.890625 -13.75 C 5.941406 -14.332031 7.09375 -14.625 8.34375 -14.625 C 10.09375 -14.625 11.378906 -14.164062 12.203125 -13.25 C 13.035156 -12.34375 13.453125 -11.070312 13.453125 -9.4375 L 13.453125 -3.671875 C 13.453125 -2.492188 13.53125 -1.679688 13.6875 -1.234375 C 13.851562 -0.796875 14.160156 -0.507812 14.609375 -0.375 L 14.609375 0 Z M 3.171875 -4.296875 C 3.171875 -3.359375 3.453125 -2.644531 4.015625 -2.15625 C 4.585938 -1.664062 5.289062 -1.421875 6.125 -1.421875 C 6.882812 -1.421875 7.578125 -1.632812 8.203125 -2.0625 C 8.828125 -2.5 9.359375 -3.0625 9.796875 -3.75 C 10.242188 -4.445312 10.59375 -5.195312 10.84375 -6 C 11.09375 -6.8125 11.21875 -7.59375 11.21875 -8.34375 L 11.21875 -9.203125 L 7.59375 -8.21875 C 6.875 -8.03125 6.171875 -7.773438 5.484375 -7.453125 C 4.804688 -7.140625 4.25 -6.734375 3.8125 -6.234375 C 3.382812 -5.734375 3.171875 -5.085938 3.171875 -4.296875 Z M 3.171875 -4.296875 "/></g></g></g><g fill="#000000" fill-opacity="1"><g transform="translate(142.331596, 228.732227)"><g><path d="M 1.4375 0 L 1.4375 -0.375 C 1.882812 -0.507812 2.1875 -0.796875 2.34375 -1.234375 C 2.507812 -1.679688 2.59375 -2.492188 2.59375 -3.671875 L 2.59375 -15.375 C 2.59375 -16.476562 2.523438 -17.332031 2.390625 -17.9375 C 2.253906 -18.539062 2.054688 -18.976562 1.796875 -19.25 C 1.546875 -19.519531 1.226562 -19.710938 0.84375 -19.828125 L 0.84375 -20.203125 L 4.328125 -20.203125 L 11.859375 -7.765625 L 19.25 -20.203125 L 22.515625 -20.203125 L 22.515625 -19.828125 C 22.128906 -19.710938 21.804688 -19.519531 21.546875 -19.25 C 21.285156 -18.976562 21.085938 -18.539062 20.953125 -17.9375 C 20.816406 -17.332031 20.75 -16.476562 20.75 -15.375 L 20.75 -3.671875 C 20.75 -2.492188 20.828125 -1.679688 20.984375 -1.234375 C 21.148438 -0.796875 21.457031 -0.507812 21.90625 -0.375 L 21.90625 0 L 17.234375 0 L 17.234375 -0.375 C 17.671875 -0.507812 17.972656 -0.796875 18.140625 -1.234375 C 18.304688 -1.679688 18.390625 -2.492188 18.390625 -3.671875 L 18.390625 -17.859375 L 11.046875 -5.484375 L 10.5 -5.484375 L 3.109375 -17.640625 L 3.109375 -4.8125 C 3.109375 -3.71875 3.1875 -2.875 3.34375 -2.28125 C 3.5 -1.6875 3.71875 -1.25 4 -0.96875 C 4.289062 -0.6875 4.648438 -0.488281 5.078125 -0.375 L 5.078125 0 Z M 1.4375 0 "/></g></g></g><g fill="#000000" fill-opacity="1"><g transform="translate(166.307303, 228.732227)"><g><path d="M 12.09375 0 C 11.507812 0 11.21875 -0.285156 11.21875 -0.859375 L 11.21875 -6.0625 C 10.9375 -4.882812 10.488281 -3.816406 9.875 -2.859375 C 9.257812 -1.898438 8.539062 -1.132812 7.71875 -0.5625 C 6.90625 0 6.015625 0.28125 5.046875 0.28125 C 4.335938 0.28125 3.675781 0.140625 3.0625 -0.140625 C 2.445312 -0.429688 1.953125 -0.851562 1.578125 -1.40625 C 1.203125 -1.96875 1.015625 -2.660156 1.015625 -3.484375 C 1.015625 -4.492188 1.3125 -5.3125 1.90625 -5.9375 C 2.5 -6.570312 3.289062 -7.09375 4.28125 -7.5 C 5.269531 -7.90625 6.332031 -8.265625 7.46875 -8.578125 L 11.21875 -9.578125 C 11.144531 -10.984375 10.757812 -12.015625 10.0625 -12.671875 C 9.375 -13.335938 8.414062 -13.671875 7.1875 -13.671875 C 6.320312 -13.671875 5.476562 -13.460938 4.65625 -13.046875 C 3.84375 -12.640625 3.070312 -11.992188 2.34375 -11.109375 L 2.078125 -11.34375 C 2.898438 -12.363281 3.835938 -13.164062 4.890625 -13.75 C 5.941406 -14.332031 7.09375 -14.625 8.34375 -14.625 C 10.09375 -14.625 11.378906 -14.164062 12.203125 -13.25 C 13.035156 -12.34375 13.453125 -11.070312 13.453125 -9.4375 L 13.453125 -3.671875 C 13.453125 -2.492188 13.53125 -1.679688 13.6875 -1.234375 C 13.851562 -0.796875 14.160156 -0.507812 14.609375 -0.375 L 14.609375 0 Z M 3.171875 -4.296875 C 3.171875 -3.359375 3.453125 -2.644531 4.015625 -2.15625 C 4.585938 -1.664062 5.289062 -1.421875 6.125 -1.421875 C 6.882812 -1.421875 7.578125 -1.632812 8.203125 -2.0625 C 8.828125 -2.5 9.359375 -3.0625 9.796875 -3.75 C 10.242188 -4.445312 10.59375 -5.195312 10.84375 -6 C 11.09375 -6.8125 11.21875 -7.59375 11.21875 -8.34375 L 11.21875 -9.203125 L 7.59375 -8.21875 C 6.875 -8.03125 6.171875 -7.773438 5.484375 -7.453125 C 4.804688 -7.140625 4.25 -6.734375 3.8125 -6.234375 C 3.382812 -5.734375 3.171875 -5.085938 3.171875 -4.296875 Z M 3.171875 -4.296875 "/></g></g></g><g fill="#000000" fill-opacity="1"><g transform="translate(181.59867, 228.732227)"><g><path d="M 6.515625 0.265625 C 5.367188 0.265625 4.328125 0.117188 3.390625 -0.171875 C 2.453125 -0.460938 1.742188 -0.757812 1.265625 -1.0625 L 1.015625 -4.5625 L 1.265625 -4.625 C 1.878906 -3.25 2.6875 -2.171875 3.6875 -1.390625 C 4.6875 -0.617188 5.84375 -0.222656 7.15625 -0.203125 C 8.0625 -0.203125 8.804688 -0.445312 9.390625 -0.9375 C 9.984375 -1.425781 10.28125 -2.078125 10.28125 -2.890625 C 10.28125 -3.578125 10.082031 -4.128906 9.6875 -4.546875 C 9.289062 -4.972656 8.769531 -5.320312 8.125 -5.59375 C 7.476562 -5.863281 6.78125 -6.113281 6.03125 -6.34375 C 5.125 -6.632812 4.316406 -6.9375 3.609375 -7.25 C 2.898438 -7.570312 2.34375 -7.992188 1.9375 -8.515625 C 1.53125 -9.035156 1.328125 -9.726562 1.328125 -10.59375 C 1.328125 -11.726562 1.78125 -12.679688 2.6875 -13.453125 C 3.601562 -14.234375 4.898438 -14.625 6.578125 -14.625 C 7.523438 -14.625 8.394531 -14.539062 9.1875 -14.375 C 9.988281 -14.21875 10.609375 -14.046875 11.046875 -13.859375 L 11.171875 -10.90625 L 10.875 -10.84375 C 10.414062 -11.882812 9.753906 -12.710938 8.890625 -13.328125 C 8.023438 -13.941406 7.082031 -14.25 6.0625 -14.25 C 5.082031 -14.25 4.296875 -14.023438 3.703125 -13.578125 C 3.117188 -13.140625 2.828125 -12.554688 2.828125 -11.828125 C 2.828125 -11.234375 3.015625 -10.734375 3.390625 -10.328125 C 3.765625 -9.921875 4.265625 -9.578125 4.890625 -9.296875 C 5.515625 -9.023438 6.203125 -8.765625 6.953125 -8.515625 C 7.515625 -8.335938 8.078125 -8.144531 8.640625 -7.9375 C 9.210938 -7.738281 9.734375 -7.488281 10.203125 -7.1875 C 10.671875 -6.894531 11.050781 -6.515625 11.34375 -6.046875 C 11.644531 -5.578125 11.796875 -4.976562 11.796875 -4.25 C 11.796875 -3.4375 11.597656 -2.6875 11.203125 -2 C 10.816406 -1.320312 10.226562 -0.78125 9.4375 -0.375 C 8.644531 0.03125 7.671875 0.242188 6.515625 0.265625 Z M 6.515625 0.265625 "/></g></g></g><g fill="#000000" fill-opacity="1"><g transform="translate(194.437643, 228.732227)"><g><path d="M 5.453125 0.28125 C 4.546875 0.28125 3.832031 -0.03125 3.3125 -0.65625 C 2.800781 -1.28125 2.546875 -2.34375 2.546875 -3.84375 L 2.546875 -14.03125 L 0.6875 -14.03125 L 0.6875 -14.4375 L 4.390625 -17.984375 L 4.796875 -17.984375 L 4.796875 -14.4375 L 9.171875 -14.4375 L 9.03125 -14.03125 L 4.796875 -14.03125 L 4.796875 -3.84375 C 4.796875 -2.851562 4.984375 -2.148438 5.359375 -1.734375 C 5.734375 -1.328125 6.226562 -1.125 6.84375 -1.125 C 7.25 -1.125 7.691406 -1.234375 8.171875 -1.453125 C 8.648438 -1.679688 9.128906 -2.070312 9.609375 -2.625 L 9.875 -2.359375 C 9.257812 -1.648438 8.578125 -1.03125 7.828125 -0.5 C 7.085938 0.0195312 6.296875 0.28125 5.453125 0.28125 Z M 5.453125 0.28125 "/></g></g></g><g fill="#000000" fill-opacity="1"><g transform="translate(204.362601, 228.732227)"><g><path d="M 7.875 0.28125 C 7.09375 0.28125 6.296875 0.140625 5.484375 -0.140625 C 4.671875 -0.429688 3.925781 -0.867188 3.25 -1.453125 C 2.582031 -2.046875 2.046875 -2.785156 1.640625 -3.671875 C 1.234375 -4.554688 1.03125 -5.59375 1.03125 -6.78125 C 1.03125 -8.351562 1.378906 -9.726562 2.078125 -10.90625 C 2.785156 -12.082031 3.71875 -12.992188 4.875 -13.640625 C 6.03125 -14.296875 7.28125 -14.625 8.625 -14.625 C 9.84375 -14.625 10.878906 -14.390625 11.734375 -13.921875 C 12.585938 -13.453125 13.25 -12.832031 13.71875 -12.0625 C 14.195312 -11.289062 14.441406 -10.445312 14.453125 -9.53125 L 3.171875 -9.53125 C 3.117188 -9.101562 3.09375 -8.660156 3.09375 -8.203125 C 3.09375 -6.890625 3.347656 -5.726562 3.859375 -4.71875 C 4.367188 -3.707031 5.085938 -2.921875 6.015625 -2.359375 C 6.953125 -1.804688 8.046875 -1.53125 9.296875 -1.53125 C 10.410156 -1.53125 11.378906 -1.757812 12.203125 -2.21875 C 13.035156 -2.6875 13.78125 -3.296875 14.4375 -4.046875 L 14.6875 -3.78125 C 14.207031 -3.101562 13.628906 -2.453125 12.953125 -1.828125 C 12.285156 -1.203125 11.53125 -0.691406 10.6875 -0.296875 C 9.851562 0.0859375 8.914062 0.28125 7.875 0.28125 Z M 3.265625 -9.90625 L 12.15625 -9.90625 C 12.050781 -10.550781 11.8125 -11.195312 11.4375 -11.84375 C 11.0625 -12.488281 10.5625 -13.023438 9.9375 -13.453125 C 9.3125 -13.890625 8.554688 -14.109375 7.671875 -14.109375 C 6.441406 -14.128906 5.457031 -13.734375 4.71875 -12.921875 C 3.976562 -12.117188 3.492188 -11.113281 3.265625 -9.90625 Z M 3.265625 -9.90625 "/></g></g></g><g fill="#000000" fill-opacity="1"><g transform="translate(219.855925, 228.732227)"><g><path d="M 0.921875 0 L 0.921875 -0.375 C 1.367188 -0.507812 1.671875 -0.796875 1.828125 -1.234375 C 1.992188 -1.679688 2.078125 -2.492188 2.078125 -3.671875 L 2.078125 -10.296875 C 2.078125 -10.972656 2.03125 -11.476562 1.9375 -11.8125 C 1.851562 -12.15625 1.726562 -12.398438 1.5625 -12.546875 C 1.40625 -12.703125 1.191406 -12.835938 0.921875 -12.953125 L 0.921875 -13.28125 L 4.0625 -14.65625 L 4.328125 -14.453125 L 4.328125 -10.84375 C 4.554688 -11.40625 4.859375 -11.925781 5.234375 -12.40625 C 5.609375 -12.882812 6.007812 -13.28125 6.4375 -13.59375 C 6.875 -13.914062 7.359375 -14.164062 7.890625 -14.34375 C 8.421875 -14.53125 9.03125 -14.625 9.71875 -14.625 C 10.300781 -14.625 10.757812 -14.554688 11.09375 -14.421875 C 11.425781 -14.296875 11.59375 -14.109375 11.59375 -13.859375 C 11.59375 -13.546875 11.441406 -13.191406 11.140625 -12.796875 C 10.847656 -12.398438 10.441406 -12.203125 9.921875 -12.203125 C 9.535156 -12.203125 9.050781 -12.273438 8.46875 -12.421875 C 7.882812 -12.566406 7.164062 -12.765625 6.3125 -13.015625 C 6.050781 -12.828125 5.769531 -12.535156 5.46875 -12.140625 C 5.164062 -11.742188 4.914062 -11.300781 4.71875 -10.8125 C 4.519531 -10.332031 4.398438 -9.863281 4.359375 -9.40625 L 4.328125 -9.40625 L 4.328125 -3.671875 C 4.328125 -2.492188 4.40625 -1.679688 4.5625 -1.234375 C 4.726562 -0.796875 5.035156 -0.507812 5.484375 -0.375 L 5.484375 0 Z M 0.921875 0 "/></g></g></g><g mask="url(#fe306d400f)"><g transform="matrix(1, 0, 0, 1, 129, 143)"><g clip-path="url(#6a774d722c)"><g fill="#000000" fill-opacity="1"><g transform="translate(0.877638, 67.304926)"><g><path d="M 4.34375 0 L 4.34375 -1.109375 C 5.65625 -1.503906 6.550781 -2.351562 7.03125 -3.65625 C 7.507812 -4.96875 7.75 -7.359375 7.75 -10.828125 L 7.75 -48.84375 C 7.75 -52.363281 7.507812 -54.757812 7.03125 -56.03125 C 6.550781 -57.3125 5.65625 -58.15625 4.34375 -58.5625 L 4.34375 -59.671875 L 18.15625 -59.671875 L 18.15625 -58.5625 C 16.84375 -58.15625 15.945312 -57.3125 15.46875 -56.03125 C 14.988281 -54.757812 14.75 -52.363281 14.75 -48.84375 L 14.75 -5.203125 C 14.75 -2.640625 16.023438 -1.359375 18.578125 -1.359375 L 28.71875 -1.359375 C 32.8125 -1.359375 35.953125 -1.96875 38.140625 -3.1875 C 40.328125 -4.414062 42.160156 -6.617188 43.640625 -9.796875 L 44.578125 -9.625 L 43.984375 0 Z M 4.34375 0 "/></g></g></g><g fill="#000000" fill-opacity="1"><g transform="translate(47.154016, 67.304926)"><g><path d="M 4.265625 0 L 4.265625 -1.109375 C 5.566406 -1.503906 6.457031 -2.351562 6.9375 -3.65625 C 7.425781 -4.96875 7.671875 -7.359375 7.671875 -10.828125 L 7.671875 -45.4375 C 7.671875 -48.664062 7.472656 -51.175781 7.078125 -52.96875 C 6.679688 -54.757812 6.097656 -56.050781 5.328125 -56.84375 C 4.554688 -57.644531 3.601562 -58.21875 2.46875 -58.5625 L 2.46875 -59.671875 L 12.78125 -59.671875 L 35.03125 -22.921875 L 56.84375 -59.671875 L 66.484375 -59.671875 L 66.484375 -58.5625 C 65.347656 -58.21875 64.394531 -57.644531 63.625 -56.84375 C 62.863281 -56.050781 62.28125 -54.757812 61.875 -52.96875 C 61.476562 -51.175781 61.28125 -48.664062 61.28125 -45.4375 L 61.28125 -10.828125 C 61.28125 -7.359375 61.519531 -4.96875 62 -3.65625 C 62.488281 -2.351562 63.382812 -1.503906 64.6875 -1.109375 L 64.6875 0 L 50.890625 0 L 50.890625 -1.109375 C 52.191406 -1.503906 53.082031 -2.351562 53.5625 -3.65625 C 54.050781 -4.96875 54.296875 -7.359375 54.296875 -10.828125 L 54.296875 -52.765625 L 32.640625 -16.1875 L 31.03125 -16.1875 L 9.203125 -52.078125 L 9.203125 -14.234375 C 9.203125 -10.992188 9.425781 -8.492188 9.875 -6.734375 C 10.332031 -4.972656 10.988281 -3.679688 11.84375 -2.859375 C 12.695312 -2.035156 13.75 -1.453125 15 -1.109375 L 15 0 Z M 4.265625 0 "/></g></g></g></g></g></g><path stroke-linecap="butt" transform="matrix(0, -0.75, 0.75, 0, 264.132117, 238.412094)" fill="none" stroke-linejoin="miter" d="M 3.002584 2.000928 L 132.768217 2.000928 " stroke="#000000" stroke-width="4" stroke-opacity="1" stroke-miterlimit="4"/><path stroke-linecap="round" transform="matrix(0, -0.75, 0.75, 0, 264.132117, 238.412094)" fill="none" stroke-linejoin="round" d="M 2.002584 -3.999073 L 2.002584 8.000928 " stroke="#000000" stroke-width="4" stroke-opacity="1" stroke-miterlimit="4"/><path stroke-linecap="round" transform="matrix(0, -0.75, 0.75, 0, 264.132117, 238.412094)" fill="none" stroke-linejoin="round" d="M 133.768217 -3.999073 L 133.768217 8.000928 " stroke="#000000" stroke-width="4" stroke-opacity="1" stroke-miterlimit="4"/><path stroke-linecap="butt" transform="matrix(-0.0137513, -0.749874, 0.749874, -0.0137513, 109.730469, 238.436908)" fill="none" stroke-linejoin="miter" d="M 2.999538 1.99804 L 132.792202 1.997596 " stroke="#000000" stroke-width="4" stroke-opacity="1" stroke-miterlimit="4"/><path stroke-linecap="round" transform="matrix(-0.0137513, -0.749874, 0.749874, -0.0137513, 109.730469, 238.436908)" fill="none" stroke-linejoin="round" d="M 1.999979 -4.000462 L 1.99867 8.001532 " stroke="#000000" stroke-width="4" stroke-opacity="1" stroke-miterlimit="4"/><path stroke-linecap="round" transform="matrix(-0.0137513, -0.749874, 0.749874, -0.0137513, 109.730469, 238.436908)" fill="none" stroke-linejoin="round" d="M 133.792974 -4.000689 L 133.791666 8.001305 " stroke="#000000" stroke-width="4" stroke-opacity="1" stroke-miterlimit="4"/><path stroke-linecap="butt" transform="matrix(0.75, -0.000000000000000186, 0.000000000000000186, 0.75, 109.366653, 236.913061)" fill="none" stroke-linejoin="miter" d="M 0.000712242 2.001335 L 208.354893 2.001335 " stroke="#000000" stroke-width="4" stroke-opacity="1" stroke-miterlimit="4"/><path stroke-linecap="butt" transform="matrix(0.75, 0.000000000000000207, -0.000000000000000207, 0.75, 111.233961, 135.086914)" fill="none" stroke-linejoin="miter" d="M 0.000551739 1.998698 L 205.865149 1.998698 " stroke="#000000" stroke-width="4" stroke-opacity="1" stroke-miterlimit="4"/></svg>