<svg xmlns="http://www.w3.org/2000/svg" xmlns:xlink="http://www.w3.org/1999/xlink" width="500" zoomAndPan="magnify" viewBox="0 0 375 374.999991" height="500" preserveAspectRatio="xMidYMid meet" version="1.0"><defs><g/></defs><g fill="#7ed957" fill-opacity="1"><g transform="translate(78.98211, 201.749987)"><g><path d="M 2.8125 -32.640625 C 2.78125 -32.640625 2.828125 -32.65625 2.953125 -32.6875 C 3.117188 -32.71875 3.601562 -32.734375 4.40625 -32.734375 C 5.207031 -32.734375 6.382812 -32.734375 7.9375 -32.734375 L 13.3125 -32.734375 L 13.3125 3.6875 L 3.6875 3.6875 L 3.6875 -13.84375 C 3.6875 -19.71875 3.675781 -24.125 3.65625 -27.0625 C 3.632812 -30 3.609375 -31.535156 3.578125 -31.671875 C 3.484375 -32.085938 3.226562 -32.410156 2.8125 -32.640625 Z M 14.578125 -32.734375 L 18.15625 -32.734375 C 19.09375 -32.734375 19.875 -32.734375 20.5 -32.734375 C 21.132812 -32.734375 21.628906 -32.71875 21.984375 -32.6875 C 22.304688 -32.65625 22.628906 -32.613281 22.953125 -32.5625 C 23.273438 -32.507812 23.597656 -32.421875 23.921875 -32.296875 C 24.796875 -32.066406 25.632812 -31.703125 26.4375 -31.203125 C 27.25 -30.703125 27.984375 -30.113281 28.640625 -29.4375 C 29.304688 -28.757812 29.878906 -28.007812 30.359375 -27.1875 C 30.847656 -26.363281 31.21875 -25.53125 31.46875 -24.6875 C 32.40625 -21.71875 32.195312 -18.878906 30.84375 -16.171875 C 30.070312 -14.617188 29.039062 -13.328125 27.75 -12.296875 C 26.457031 -11.265625 24.988281 -10.503906 23.34375 -10.015625 C 22.175781 -9.734375 20.238281 -9.59375 17.53125 -9.59375 L 14.578125 -9.59375 L 14.578125 -16.421875 L 16.515625 -16.46875 C 17.742188 -16.46875 18.519531 -16.5 18.84375 -16.5625 C 21.03125 -17.300781 22.046875 -18.960938 21.890625 -21.546875 C 21.785156 -23.359375 21.085938 -24.519531 19.796875 -25.03125 C 19.515625 -25.164062 18.566406 -25.234375 16.953125 -25.234375 L 14.578125 -25.234375 Z M 14.578125 -32.734375 "/></g></g></g><g fill="#7ed957" fill-opacity="1"><g transform="translate(112.33668, 201.749987)"><g><path d="M 15.984375 -24.640625 C 17.335938 -24.640625 18.648438 -24.539062 19.921875 -24.34375 C 21.203125 -24.15625 22.363281 -23.800781 23.40625 -23.28125 C 24.457031 -22.769531 25.378906 -22.0625 26.171875 -21.15625 C 26.960938 -20.25 27.566406 -19.085938 27.984375 -17.671875 L 28.234375 -16.953125 L 28.234375 3.6875 L 18.6875 3.6875 L 18.6875 -8.328125 L 16.03125 -8.28125 L 13.3125 -8.28125 L 12.78125 -8.03125 C 12.226562 -7.78125 11.875 -7.25 11.71875 -6.4375 C 11.457031 -5.207031 11.695312 -4.207031 12.4375 -3.4375 C 12.925781 -2.851562 13.785156 -2.5625 15.015625 -2.5625 C 15.460938 -2.5625 15.910156 -2.601562 16.359375 -2.6875 C 16.816406 -2.769531 17.238281 -2.90625 17.625 -3.09375 C 17.6875 -3.09375 17.71875 -3.0625 17.71875 -3 C 17.75 -2.875 17.765625 -1.9375 17.765625 -0.1875 L 17.765625 2.71875 L 17.28125 3 C 16.445312 3.414062 15.546875 3.710938 14.578125 3.890625 C 13.609375 4.078125 12.65625 4.171875 11.71875 4.171875 C 11.164062 4.171875 10.644531 4.144531 10.15625 4.09375 C 9.675781 4.039062 9.210938 3.953125 8.765625 3.828125 C 6.378906 3.179688 4.519531 1.921875 3.1875 0.046875 C 1.863281 -1.828125 1.253906 -4.019531 1.359375 -6.53125 C 1.546875 -10.632812 3.738281 -13.085938 7.9375 -13.890625 C 8.394531 -13.960938 10.316406 -14.03125 13.703125 -14.09375 L 18.6875 -14.140625 L 18.640625 -15.015625 C 18.578125 -16.234375 18.238281 -17.019531 17.625 -17.375 C 17.007812 -17.738281 16.15625 -17.921875 15.0625 -17.921875 C 14.863281 -17.921875 14.59375 -17.898438 14.25 -17.859375 C 13.914062 -17.828125 13.570312 -17.769531 13.21875 -17.6875 C 12.863281 -17.613281 12.539062 -17.503906 12.25 -17.359375 C 11.957031 -17.210938 11.765625 -17.007812 11.671875 -16.75 L 11.578125 -16.515625 L 2.71875 -16.515625 C 2.71875 -16.703125 2.988281 -17.378906 3.53125 -18.546875 C 4.019531 -19.421875 4.609375 -20.242188 5.296875 -21.015625 C 5.992188 -21.785156 6.664062 -22.398438 7.3125 -22.859375 C 8.632812 -23.691406 10.03125 -24.195312 11.5 -24.375 C 12.96875 -24.550781 14.460938 -24.640625 15.984375 -24.640625 Z M 15.984375 -24.640625 "/></g></g></g><g fill="#7ed957" fill-opacity="1"><g transform="translate(143.706433, 201.749987)"><g><path d="M 20.828125 -24.640625 L 21.3125 -24.640625 L 21.25 -20.578125 L 21.25 -15.59375 L 20.484375 -15.640625 C 18.804688 -15.734375 17.367188 -15.472656 16.171875 -14.859375 C 15.492188 -14.503906 14.890625 -13.875 14.359375 -12.96875 C 13.828125 -12.070312 13.460938 -11.023438 13.265625 -9.828125 C 13.171875 -9.347656 13.125 -6.976562 13.125 -2.71875 L 13.125 3.6875 L 3.390625 3.6875 L 3.390625 -9.828125 C 3.390625 -14.378906 3.378906 -17.753906 3.359375 -19.953125 C 3.347656 -22.148438 3.3125 -23.28125 3.25 -23.34375 C 3.082031 -23.695312 2.851562 -23.9375 2.5625 -24.0625 C 2.53125 -24.09375 2.546875 -24.125 2.609375 -24.15625 C 2.773438 -24.1875 3.285156 -24.203125 4.140625 -24.203125 C 4.992188 -24.203125 6.195312 -24.203125 7.75 -24.203125 L 13.125 -24.203125 L 13.125 -19.46875 L 13.46875 -20.140625 C 14.070312 -21.597656 15.0625 -22.710938 16.4375 -23.484375 C 17.8125 -24.253906 19.273438 -24.640625 20.828125 -24.640625 Z M 20.828125 -24.640625 "/></g></g></g><g fill="#7ed957" fill-opacity="1"><g transform="translate(165.684627, 201.749987)"><g><path d="M 13.796875 -24.359375 C 14.023438 -24.390625 14.234375 -24.40625 14.421875 -24.40625 C 14.617188 -24.40625 14.800781 -24.421875 14.96875 -24.453125 L 15.390625 -24.453125 L 15.390625 -21.015625 L 15.34375 -17.671875 L 14.90625 -17.625 C 14.195312 -17.425781 13.625 -17.082031 13.1875 -16.59375 C 12.757812 -16.113281 12.421875 -15.578125 12.171875 -14.984375 C 11.929688 -14.390625 11.769531 -13.753906 11.6875 -13.078125 C 11.613281 -12.398438 11.5625 -11.738281 11.53125 -11.09375 C 11.457031 -8.15625 11.695312 -6.023438 12.25 -4.703125 C 12.476562 -4.117188 12.859375 -3.648438 13.390625 -3.296875 C 13.921875 -2.941406 14.507812 -2.765625 15.15625 -2.765625 L 15.390625 -2.765625 L 15.390625 3.875 L 14.90625 3.875 C 14.070312 3.875 13.101562 3.734375 12 3.453125 C 10.90625 3.179688 9.925781 2.867188 9.0625 2.515625 C 7.40625 1.773438 6.09375 0.863281 5.125 -0.21875 C 4.164062 -1.300781 3.410156 -2.695312 2.859375 -4.40625 C 2.210938 -6.34375 1.921875 -8.519531 1.984375 -10.9375 C 2.046875 -12.75 2.367188 -14.410156 2.953125 -15.921875 C 3.535156 -17.441406 4.332031 -18.78125 5.34375 -19.9375 C 6.363281 -21.101562 7.582031 -22.054688 9 -22.796875 C 10.425781 -23.546875 12.023438 -24.066406 13.796875 -24.359375 Z M 16.515625 -24.453125 L 17.390625 -24.40625 C 18.898438 -24.3125 20.285156 -23.988281 21.546875 -23.4375 C 22.804688 -22.882812 23.90625 -22.148438 24.84375 -21.234375 C 25.78125 -20.316406 26.550781 -19.242188 27.15625 -18.015625 C 27.769531 -16.785156 28.191406 -15.445312 28.421875 -14 L 28.421875 -13.703125 L 19.21875 -13.703125 L 19.03125 -14.625 C 18.863281 -15.65625 18.628906 -16.394531 18.328125 -16.84375 C 18.023438 -17.300781 17.566406 -17.5625 16.953125 -17.625 L 16.515625 -17.671875 Z M 18.9375 -6 L 19.21875 -6.78125 L 28.28125 -6.78125 L 28.234375 -6.34375 C 28.097656 -5.082031 27.722656 -3.847656 27.109375 -2.640625 C 26.503906 -1.429688 25.765625 -0.359375 24.890625 0.578125 C 22.921875 2.546875 20.367188 3.628906 17.234375 3.828125 L 16.65625 3.828125 L 16.65625 -2.71875 L 17 -2.953125 C 17.769531 -3.398438 18.414062 -4.414062 18.9375 -6 Z M 18.9375 -6 "/></g></g></g><g fill="#7ed957" fill-opacity="1"><g transform="translate(195.311616, 201.749987)"><g><path d="M 13.796875 -24.546875 C 14.054688 -24.578125 14.378906 -24.59375 14.765625 -24.59375 C 15.148438 -24.59375 15.617188 -24.59375 16.171875 -24.59375 C 16.722656 -24.5625 17.195312 -24.53125 17.59375 -24.5 C 18 -24.46875 18.347656 -24.421875 18.640625 -24.359375 C 20.578125 -24.035156 22.207031 -23.425781 23.53125 -22.53125 C 24.851562 -21.644531 25.910156 -20.554688 26.703125 -19.265625 C 27.492188 -17.972656 28.070312 -16.535156 28.4375 -14.953125 C 28.8125 -13.378906 29.015625 -11.71875 29.046875 -9.96875 L 29.046875 -8.421875 L 20.53125 -8.375 L 12.015625 -8.375 L 11.90625 -7.984375 C 11.875 -7.660156 11.910156 -7.050781 12.015625 -6.15625 C 12.140625 -5.082031 12.441406 -4.191406 12.921875 -3.484375 C 13.410156 -2.773438 14.269531 -2.421875 15.5 -2.421875 C 16.269531 -2.421875 16.953125 -2.582031 17.546875 -2.90625 C 18.148438 -3.226562 18.582031 -3.773438 18.84375 -4.546875 C 19 -4.929688 19.09375 -5.125 19.125 -5.125 C 19.257812 -5.195312 20.84375 -5.234375 23.875 -5.234375 C 26.9375 -5.234375 28.5 -5.195312 28.5625 -5.125 C 28.664062 -5.125 28.554688 -4.738281 28.234375 -3.96875 C 27.648438 -2.488281 26.921875 -1.238281 26.046875 -0.21875 C 25.179688 0.800781 24.195312 1.625 23.09375 2.25 C 22 2.882812 20.796875 3.335938 19.484375 3.609375 C 18.179688 3.878906 16.785156 4.015625 15.296875 4.015625 C 13.972656 4.015625 12.625 3.867188 11.25 3.578125 C 9.882812 3.285156 8.648438 2.785156 7.546875 2.078125 C 7.390625 1.984375 7.171875 1.8125 6.890625 1.5625 C 6.617188 1.320312 6.347656 1.054688 6.078125 0.765625 C 5.804688 0.484375 5.539062 0.195312 5.28125 -0.09375 C 5.019531 -0.382812 4.828125 -0.628906 4.703125 -0.828125 C 3.703125 -2.179688 2.96875 -3.769531 2.5 -5.59375 C 2.03125 -7.414062 1.859375 -9.3125 1.984375 -11.28125 C 2.273438 -15.125 3.421875 -18.179688 5.421875 -20.453125 C 7.421875 -22.734375 10.210938 -24.097656 13.796875 -24.546875 Z M 16.65625 -18.359375 C 16.5 -18.390625 16.328125 -18.410156 16.140625 -18.421875 C 15.960938 -18.441406 15.796875 -18.453125 15.640625 -18.453125 C 14.285156 -18.453125 13.359375 -18.046875 12.859375 -17.234375 C 12.359375 -16.429688 12.039062 -15.414062 11.90625 -14.1875 L 11.8125 -13.5625 L 19.5625 -13.5625 L 19.515625 -13.890625 C 19.484375 -14.566406 19.335938 -15.253906 19.078125 -15.953125 C 18.816406 -16.648438 18.539062 -17.191406 18.25 -17.578125 C 17.925781 -17.992188 17.394531 -18.253906 16.65625 -18.359375 Z M 16.65625 -18.359375 "/></g></g></g><g fill="#7ed957" fill-opacity="1"><g transform="translate(226.294089, 201.749987)"><g><path d="M 20.828125 -24.640625 L 21.3125 -24.640625 L 21.25 -20.578125 L 21.25 -15.59375 L 20.484375 -15.640625 C 18.804688 -15.734375 17.367188 -15.472656 16.171875 -14.859375 C 15.492188 -14.503906 14.890625 -13.875 14.359375 -12.96875 C 13.828125 -12.070312 13.460938 -11.023438 13.265625 -9.828125 C 13.171875 -9.347656 13.125 -6.976562 13.125 -2.71875 L 13.125 3.6875 L 3.390625 3.6875 L 3.390625 -9.828125 C 3.390625 -14.378906 3.378906 -17.753906 3.359375 -19.953125 C 3.347656 -22.148438 3.3125 -23.28125 3.25 -23.34375 C 3.082031 -23.695312 2.851562 -23.9375 2.5625 -24.0625 C 2.53125 -24.09375 2.546875 -24.125 2.609375 -24.15625 C 2.773438 -24.1875 3.285156 -24.203125 4.140625 -24.203125 C 4.992188 -24.203125 6.195312 -24.203125 7.75 -24.203125 L 13.125 -24.203125 L 13.125 -19.46875 L 13.46875 -20.140625 C 14.070312 -21.597656 15.0625 -22.710938 16.4375 -23.484375 C 17.8125 -24.253906 19.273438 -24.640625 20.828125 -24.640625 Z M 20.828125 -24.640625 "/></g></g></g><g fill="#7ed957" fill-opacity="1"><g transform="translate(248.272283, 201.749987)"><g><path d="M 3.4375 -34.328125 L 13.078125 -34.328125 L 13.078125 -26.921875 L 3.4375 -26.921875 Z M 2.609375 -24.109375 C 2.546875 -24.171875 2.53125 -24.191406 2.5625 -24.171875 C 2.59375 -24.160156 2.644531 -24.15625 2.71875 -24.15625 C 2.875 -24.1875 3.351562 -24.203125 4.15625 -24.203125 C 4.96875 -24.203125 6.132812 -24.203125 7.65625 -24.203125 L 12.984375 -24.203125 L 12.984375 3.6875 L 3.4375 3.6875 L 3.4375 -11.28125 C 3.4375 -14.3125 3.4375 -16.695312 3.4375 -18.4375 C 3.4375 -20.1875 3.421875 -21.320312 3.390625 -21.84375 C 3.328125 -22.875 3.210938 -23.503906 3.046875 -23.734375 C 2.953125 -23.890625 2.804688 -24.015625 2.609375 -24.109375 Z M 2.609375 -24.109375 "/></g></g></g><g fill="#7ed957" fill-opacity="1"><g transform="translate(264.634906, 201.749987)"><g><path d="M 15.984375 -24.640625 C 17.335938 -24.640625 18.648438 -24.539062 19.921875 -24.34375 C 21.203125 -24.15625 22.363281 -23.800781 23.40625 -23.28125 C 24.457031 -22.769531 25.378906 -22.0625 26.171875 -21.15625 C 26.960938 -20.25 27.566406 -19.085938 27.984375 -17.671875 L 28.234375 -16.953125 L 28.234375 3.6875 L 18.6875 3.6875 L 18.6875 -8.328125 L 16.03125 -8.28125 L 13.3125 -8.28125 L 12.78125 -8.03125 C 12.226562 -7.78125 11.875 -7.25 11.71875 -6.4375 C 11.457031 -5.207031 11.695312 -4.207031 12.4375 -3.4375 C 12.925781 -2.851562 13.785156 -2.5625 15.015625 -2.5625 C 15.460938 -2.5625 15.910156 -2.601562 16.359375 -2.6875 C 16.816406 -2.769531 17.238281 -2.90625 17.625 -3.09375 C 17.6875 -3.09375 17.71875 -3.0625 17.71875 -3 C 17.75 -2.875 17.765625 -1.9375 17.765625 -0.1875 L 17.765625 2.71875 L 17.28125 3 C 16.445312 3.414062 15.546875 3.710938 14.578125 3.890625 C 13.609375 4.078125 12.65625 4.171875 11.71875 4.171875 C 11.164062 4.171875 10.644531 4.144531 10.15625 4.09375 C 9.675781 4.039062 9.210938 3.953125 8.765625 3.828125 C 6.378906 3.179688 4.519531 1.921875 3.1875 0.046875 C 1.863281 -1.828125 1.253906 -4.019531 1.359375 -6.53125 C 1.546875 -10.632812 3.738281 -13.085938 7.9375 -13.890625 C 8.394531 -13.960938 10.316406 -14.03125 13.703125 -14.09375 L 18.6875 -14.140625 L 18.640625 -15.015625 C 18.578125 -16.234375 18.238281 -17.019531 17.625 -17.375 C 17.007812 -17.738281 16.15625 -17.921875 15.0625 -17.921875 C 14.863281 -17.921875 14.59375 -17.898438 14.25 -17.859375 C 13.914062 -17.828125 13.570312 -17.769531 13.21875 -17.6875 C 12.863281 -17.613281 12.539062 -17.503906 12.25 -17.359375 C 11.957031 -17.210938 11.765625 -17.007812 11.671875 -16.75 L 11.578125 -16.515625 L 2.71875 -16.515625 C 2.71875 -16.703125 2.988281 -17.378906 3.53125 -18.546875 C 4.019531 -19.421875 4.609375 -20.242188 5.296875 -21.015625 C 5.992188 -21.785156 6.664062 -22.398438 7.3125 -22.859375 C 8.632812 -23.691406 10.03125 -24.195312 11.5 -24.375 C 12.96875 -24.550781 14.460938 -24.640625 15.984375 -24.640625 Z M 15.984375 -24.640625 "/></g></g></g></svg>